<?xml version="1.0" encoding="utf-8"?>
<!DOCTYPE svg PUBLIC "-//W3C//DTD SVG 1.0//EN"    "http://www.w3.org/TR/2001/REC-SVG-20010904/DTD/svg10.dtd" [
	<!ENTITY ns_svg "http://www.w3.org/2000/svg">
]>

<svg xmlns="&ns_svg;" width="281" height="271" viewBox="0 0 281 271" overflow="visible" enable-background="new 0 0 281 271" xml:space="preserve">
		<g>
			<path fill-rule="evenodd" clip-rule="evenodd" d="M281,130.5c0-25.3-23.561-18.83-52.49,1.26C218.59,125.37,277.45,85.81,267,77
				c0.391-13.43-67.939,5.33-66.15-5.93c32.17-5.36,51.26-16.58,33.76-34.09c-17.51-17.51-28.59,1.73-33.76,34.09
				C189.21,73.02,201.95,11.57,188,12c-8.4-9.05-42.07,44.51-48.26,35.97C158.7,21.44,164.26,0,139.5,0s-18.99,21.44,0.24,47.97
				C133.87,56.2,100.94-0.71,93,8c-13.97-1.07-1.64,62.76-13.45,60.27c-6.04-34.46-17.97-55.54-35.86-37.65
				C25.8,48.5,46.12,61.21,79.55,68.27C81.63,80.16,16.32,64.98,17,79c-10.7,9.19,45.16,46.14,34.98,52.76
				C23.35,111.67,0,105.2,0,130.5s23.35,19.91,51.98,1.26C62.01,138.8,1.45,173.4,12,183c-0.88,12.88,68.88-0.721,66.79,10.13
				c-33.35,6.16-53.32,17.97-35.81,35.479c17.51,17.5,29.46-2.319,35.81-35.479c10.84-1.989-6.63,62.681,6.21,61.87
				c9.56,10.73,47.89-44.52,54.74-34.41c-19.23,27.939-25,50.41-0.24,50.41s19.2-22.471,0.24-50.41c7-10.16,41.52,45.2,51.26,34.41
				c13.92,0.77,1.561-64.04,13.38-61.91c7.261,33.641,20.11,54.11,38,36.221c17.89-17.891-3.34-29.98-38-36.221
				c-2.47-11.4,62.78,7.36,61.62-6.09c10.01-8.891-46.99-48.641-37.49-55.24C257.439,150.41,281,155.8,281,130.5z M77,133.5
				C77,98.43,104.76,70,139,70s62,28.43,62,63.5c0,35.07-27.76,63.5-62,63.5S77,168.57,77,133.5z"/>
				
				<polygon fill-rule="evenodd" clip-rule="evenodd" points="109,93 189,133 109,173 "/>
		</g>
	</svg>
